# xmcd
#
# Track frame offsets: 
#        150
#        14662
#        33774
#        53775
#        69678
#        83973
#        102821
#        117837
#        136943
#
# Disc length: 2032 seconds
#
# Revision: 1
# Processed by: cddbd v1.5.2PL0 Copyright (c) Steve Scherf et al.
# Submitted via: ExactAudioCopy v0.95b4
#
DISCID=7207ee09
DTITLE=Gilberto Santa Rosa - Contraste - CD2 Pop Balada
DYEAR=2007
DGENRE=Latin
TTITLE0=Cuerpo A Cuerpo 
TTITLE1=Pensando En Ti 
TTITLE2=Te Me Perdiste 
TTITLE3=En Lo Bueno, En Lo Malo 
TTITLE4=Empate 
TTITLE5=Nos Hace Bien 
TTITLE6=No Te Vayas 
TTITLE7=Tocan A La Puerta 
TTITLE8=Conteo Regresivo 
EXTD=YEAR: 2007
EXTT0=
EXTT1=
EXTT2=
EXTT3=
EXTT4=
EXTT5=
EXTT6=
EXTT7=
EXTT8=
PLAYORDER=
